<svg xmlns="http://www.w3.org/2000/svg" viewBox="0 0 426.28 200.54"><defs><style>.cls-1{fill:#0079d3;}</style></defs><g id="Layer_2" data-name="Layer 2"><g id="Layer_1-2" data-name="Layer 1"><path class="cls-1" d="M424.38,56.78a2,2,0,0,0-1.33-.42C381.19,52,239.93,52.09,224,52.12c0-1.21,0-2.38,0-3.53v0a168.06,168.06,0,0,0-2-29.14A1.31,1.31,0,0,0,222,19C219.33,4.22,215.15.54,214.88.32A1.4,1.4,0,0,0,214,0H212.3a1.4,1.4,0,0,0-.9.32c-.27.22-4.45,3.9-7.08,18.66a1.29,1.29,0,0,0-.07.43,168.11,168.11,0,0,0-2,29.15v0c0,1.15,0,2.32,0,3.53-15.91,0-157.16-.09-199,4.24a2,2,0,0,0-1.32.42C.79,57.62-.59,60.11.27,72a1.41,1.41,0,0,0,1.25,1.3c1,.13,106,12.24,202.66,12.35.59,9.73,4.23,69.82,4.41,88.46-5.72.46-25.79,2.59-30.7,4.28h0a2.36,2.36,0,0,0-1.35.45c-1,.74-2.27,2.6-2.07,9.88h0c0,1.06.09,2.23.19,3.54a1.41,1.41,0,0,0,1.34,1.31l35.08,1.81.16,3.81a1.42,1.42,0,0,0,1.42,1.35h1a1.42,1.42,0,0,0,1.42-1.35l.16-3.81,35.08-1.81a1.41,1.41,0,0,0,1.34-1.31c.1-1.31.16-2.48.19-3.54h0c.2-7.28-1.05-9.14-2.07-9.88a2.36,2.36,0,0,0-1.35-.45h0c-4.91-1.69-25-3.82-30.7-4.28.18-18.64,3.82-78.73,4.41-88.46,40.73,0,82.93-2.22,118.21-4.74h.09a1.12,1.12,0,0,0,.32,0c30-2.14,54.9-4.52,69.63-6h0c9-.92,14.13-1.52,14.36-1.55A1.41,1.41,0,0,0,426,72C426.87,60.11,425.49,57.62,424.38,56.78ZM207,20.28a12,12,0,0,1,12.34,0,170.34,170.34,0,0,1,1.92,27.63,11.8,11.8,0,0,1-16.18,0A170.34,170.34,0,0,1,207,20.28Zm5.91-17.45h.52c1.57,1.72,3.65,6.09,5.27,14a15.09,15.09,0,0,0-11.06,0C209.23,8.92,211.31,4.55,212.88,2.83ZM3.55,59.18c42-4.34,184.48-4.24,199-4.22.21,3.55.82,14,1.65,27.85-40.53,0-82.51-2.21-117.66-4.71V73.31a1.43,1.43,0,0,0-1.34-1.42L15.45,68a1.38,1.38,0,0,0-1,.39,1.41,1.41,0,0,0-.44,1v2.34c-5.4-.56-9.16-1-10.94-1.18C2.49,62.2,3.26,59.78,3.55,59.18ZM83.67,77.89c-28.62-2.07-52.45-4.33-66.88-5.81V70.94l66.88,3.71ZM211,190.9l-.66,1.61-33-1.7c0-.24,0-.45,0-.68h34.44A1.41,1.41,0,0,0,211,190.9Zm1.88-.77h.54a.31.31,0,0,1-.54,0Zm3.08,2.38-.66-1.61a1.4,1.4,0,0,0-.78-.77h34.42c0,.23,0,.44,0,.68Zm.32-15.66c1.91,0,27.32,2.61,31.41,4.29a1.26,1.26,0,0,0,.51.11c.24.37.84,1.72.83,6.05H177.26c0-4.33.59-5.68.83-6.05a1.26,1.26,0,0,0,.51-.11c4.09-1.68,29.5-4.29,31.41-4.29a1.43,1.43,0,0,0,1.42-1.42c0-17.46-4-83.48-4.47-90.66a1.34,1.34,0,0,0,.12-.63c-1.09-18.08-1.82-30.68-1.82-30.68a1.35,1.35,0,0,0-.16-.57c0-.47,0-.93,0-1.39a14.48,14.48,0,0,0,16.12,0c0,.66,0,1.31,0,2s-.76,13-1.81,30.65h0c-.05.72-4.51,72.91-4.51,91.29A1.43,1.43,0,0,0,216.27,176.85ZM408.7,72.16c-14.64,1.49-38.43,3.74-66.88,5.79V75L408.7,71.3Zm14.56-1.55c-1.86.21-5.9.66-11.73,1.26V69.81a1.41,1.41,0,0,0-.44-1,1.43,1.43,0,0,0-1.06-.39l-69.7,3.86A1.42,1.42,0,0,0,339,73.67v4.48c-34.95,2.48-76.54,4.6-116.71,4.65.83-13.87,1.44-24.29,1.64-27.84,15.24,0,156.93-.11,198.81,4.22C423,59.78,423.79,62.2,423.26,70.61Z"/><path class="cls-1" d="M311,65H277a1.42,1.42,0,1,0,0,2.83h34A1.42,1.42,0,0,0,311,65Z"/><path class="cls-1" d="M116,67.81h34A1.42,1.42,0,0,0,150,65H116a1.42,1.42,0,1,0,0,2.83Z"/></g></g></svg>