<svg xmlns="http://www.w3.org/2000/svg" viewBox="0 0 487.84 243.12"><defs><style>.cls-1{fill:#0079d3;}</style></defs><g id="Layer_2" data-name="Layer 2"><g id="Layer_1-2" data-name="Layer 1"><path class="cls-1" d="M485.58,76.83a4.53,4.53,0,0,0-3.22-1.71l-227.2-1.3.07-1.35c.19-3.11.43-9,.43-19.32,0-32.15-9.45-51.55-9.85-52.36A1.41,1.41,0,0,0,244.54,0H243.3A1.39,1.39,0,0,0,242,.79c-.41.81-9.86,20.21-9.86,52.36v2h0c0,8.88.25,14.19.42,17.13v.1l.07,1.41L5.5,75.12a4.54,4.54,0,0,0-3.24,1.71C.06,79.38-.54,84.21.48,91.19a1.42,1.42,0,0,0,1.21,1.2l93.67,13L226.28,118a39.12,39.12,0,0,1,7,1.66,3,3,0,0,1,1.71,1.65l3.8,94.3-36.43,5.8a2.72,2.72,0,0,0-1.82.8c-1.81,1.72-2.3,5.94-1.49,12.9a1.42,1.42,0,0,0,1.31,1.25l40.74,2.87A1.43,1.43,0,0,0,242,239l.49,2.94a1.43,1.43,0,0,0,1.4,1.18H244a1.42,1.42,0,0,0,1.4-1.18l.49-2.94a1.46,1.46,0,0,0,.85.21l40.74-2.87a1.42,1.42,0,0,0,1.31-1.25c.8-7,.31-11.18-1.5-12.9a2.7,2.7,0,0,0-1.82-.8L249,215.59l3.81-94.3a3,3,0,0,1,1.65-1.64h0a39.89,39.89,0,0,1,7.07-1.67l131-12.65,93.6-12.94a1.42,1.42,0,0,0,1.21-1.2C488.38,84.21,487.78,79.38,485.58,76.83ZM250.52,79.09c0,1.5,0,3.2-1,4.28s-2.74,1.45-5.31,1.45h-.63c-2.58,0-4.37-.49-5.32-1.45s-1-2.78-1-4.28v-.6a5,5,0,0,0-1.62-4c-.15-1.64-.53-6.82-.59-18.23a29.76,29.76,0,0,1,17.8-.4c0,11.49-.42,16.8-.57,18.54a4.87,4.87,0,0,0-1.74,4.14ZM235,53.15A151.15,151.15,0,0,1,236.21,34c2-7.76,5-12.57,7.71-12.57s5.68,4.82,7.71,12.58a150.35,150.35,0,0,1,1.2,18.82,32.2,32.2,0,0,0-8.26-1.07A32.63,32.63,0,0,0,235,53.23Zm8.91-49.64a105.85,105.85,0,0,1,5.68,18.63c-1.71-2.29-3.63-3.5-5.68-3.5s-4,1.21-5.68,3.5A106.75,106.75,0,0,1,243.92,3.51ZM94.29,102.33,18.34,91.83V89.48l76,9.09ZM234.23,117a41.1,41.1,0,0,0-7.67-1.8L97.13,102.66V97.31a1.41,1.41,0,0,0-1.25-1.4L17.09,86.48a1.37,1.37,0,0,0-1.11.34,1.43,1.43,0,0,0-.47,1.06v3.56L3.14,89.73c-.88-7.07.33-9.87,1.17-10.92A2.21,2.21,0,0,1,5.5,78l227.31-1.3,2,40.56A4.25,4.25,0,0,0,234.23,117Zm11.91,99.78a1.42,1.42,0,0,0,1.19,1.46l37.81,6,.17,0c.23.22,1.5,1.81.77,9.37l-38.66,2.72-1.09-2a1.41,1.41,0,0,0-1.24-.73,1,1,0,0,0-.24,0,1.39,1.39,0,0,0-.93.59,1.37,1.37,0,0,0-.93-.59,1.43,1.43,0,0,0-1.48.71l-1.08,2-38.66-2.72c-.74-7.56.53-9.15.77-9.37l.16,0,37.81-6a1.44,1.44,0,0,0,1.2-1.46L237.85,121a.68.68,0,0,1,0-.14l-1.76-35.71c.05.06.09.13.15.19,1.53,1.54,3.92,2.29,7.34,2.29h.63c3.41,0,5.81-.75,7.33-2.29.09-.1.16-.21.25-.31L250,121h0ZM469.72,91.8l-76,10.5V98.57l76-9.09Zm15-2.07-12.14,1.68V87.88a1.44,1.44,0,0,0-.48-1.06,1.36,1.36,0,0,0-1.11-.34l-78.79,9.43a1.41,1.41,0,0,0-1.25,1.4v5.33L261.28,115.16a41.63,41.63,0,0,0-7.71,1.81s-.24.09-.55.24l2-40.56L482.29,78a2.08,2.08,0,0,1,1.25.86C484.37,79.86,485.58,82.66,484.7,89.73Z"/><path class="cls-1" d="M322.79,93.66a1.42,1.42,0,0,1-.06-2.84l39.5-1.72a1.42,1.42,0,0,1,.13,2.84l-39.5,1.72Z"/><path class="cls-1" d="M165.3,93.66h-.07l-39.5-1.72a1.42,1.42,0,0,1,.13-2.84l39.5,1.72a1.42,1.42,0,0,1-.06,2.84Z"/></g></g></svg>