<svg xmlns="http://www.w3.org/2000/svg" viewBox="0 0 444.51 202.74"><defs><style>.cls-1{fill:#0079d3;}</style></defs><g id="Layer_2" data-name="Layer 2"><g id="Layer_1-2" data-name="Layer 1"><path class="cls-1" d="M444.5,61.56s0-.08,0-.12c0-8-4.67-10.92-7.14-11.34l-.16,0L343.49,44.7h-109c-1-14.46-4-44.7-12-44.7s-11.08,30.24-12.06,44.7H101.28L7.64,50.08l-.16,0c-2.31.39-6.54,3-7.08,9.84A1.43,1.43,0,0,0,0,61.08a1.38,1.38,0,0,0,.36.79C1,67.21,12.55,73.21,31.63,78c16.25,4.09,44.48,9,86.75,9h95.17c.55,7.59,3.28,45.87,3.43,59.32l-39.55,10.83c-1.92.57-5.55,2.78-5.55,7v7.71a1.41,1.41,0,0,0,1,1.36l42.84,12.69a1.4,1.4,0,0,0,.86,0l2.82-1,1,16.49a1.42,1.42,0,0,0,1.42,1.33H223a1.42,1.42,0,0,0,1.42-1.33l1-16.49,2.81,1a1.4,1.4,0,0,0,.86,0L272,173.22a1.41,1.41,0,0,0,1-1.36v-7.71c0-4.24-3.63-6.45-5.58-7L227.87,146.3c.15-13.45,2.89-51.73,3.44-59.32h97.82C399.25,86.61,444,71.89,444.5,61.62v-.06ZM222.43,2.83c2.11,0,7.08,10.29,9.21,41.87h-2.19c-2.16-21.07-5.68-21.08-7-21.08s-4.87,0-7,21.08h-2.19C215.35,13.12,220.32,2.83,222.43,2.83ZM226.6,44.7h-8.35c1.38-13.18,3.36-17.47,4.18-18.18C223.24,27.23,225.22,31.52,226.6,44.7ZM3.35,62.18a99.44,99.44,0,0,1,12.85.41L114,77.87v6.26c-39.55-.32-66.15-4.95-81.66-8.86C12.78,70.34,4.62,65.05,3.35,62.18Zm225.4,120.88-4.15-1.43a1.42,1.42,0,0,0-1.88,1.25l-.29,4.92-.3-4.92a1.41,1.41,0,0,0-1.87-1.25l-4.15,1.43L174.72,170.8v-3h95.42v3ZM230,84.15a1.41,1.41,0,0,0-1.41,1.31c0,.48-3.55,48.2-3.55,61.92a1.41,1.41,0,0,0,1,1.37l40.53,11.09c.15,0,3.54,1.14,3.54,4.31V165H174.72v-.83c0-3.17,3.38-4.26,3.49-4.3l40.57-11.1a1.41,1.41,0,0,0,1-1.37c0-13.72-3.51-61.44-3.54-61.92a1.43,1.43,0,0,0-1.42-1.31h-98V76.65a1.43,1.43,0,0,0-1.2-1.4L16.57,59.78a99.46,99.46,0,0,0-13.25-.43C4,54,7.41,53,7.91,52.9l93.45-5.36H343.41l93.53,5.36c.55.14,4.11,1.23,4.66,7a96.72,96.72,0,0,0-13.73.42l-99,15.46a1.42,1.42,0,0,0-1.2,1.4v7H230Zm182.53-8.88c-15.56,3.92-42.26,8.56-82,8.86V78.38l97.7-15.26a96.93,96.93,0,0,1,13-.41C439.25,65.66,430.94,70.63,412.52,75.27Z"/><path class="cls-1" d="M326.17,58.11h-29.8a1.42,1.42,0,1,0,0,2.83h29.8a1.42,1.42,0,1,0,0-2.83Z"/><path class="cls-1" d="M148.17,58.11h-29.8a1.42,1.42,0,1,0,0,2.83h29.8a1.42,1.42,0,1,0,0-2.83Z"/></g></g></svg>