<svg width="230" height="106" viewBox="0 0 230 106" fill="none" xmlns="http://www.w3.org/2000/svg">
<path d="M0.286743 41.0274C0.465958 41.102 0.645172 41.102 0.824387 40.9528L2.72404 39.4236H10.9319H11.3979C12.2939 39.4982 36.9534 41.5123 62.8674 43.6009C62.9391 43.6382 63.0108 43.6382 63.0824 43.6382C63.1183 43.6382 63.19 43.6382 63.2258 43.6009C73.19 44.4215 83.3333 45.2047 92.4014 45.9134C92.4731 45.9507 92.5448 45.9507 92.6165 45.9507C92.6523 45.9507 92.724 45.9507 92.7599 45.9134C99.4265 46.4356 105.484 46.9204 110.394 47.2934C110.43 47.2934 110.466 47.2934 110.502 47.2934C110.502 47.2934 110.789 47.2561 111.039 47.4799C111.326 47.7037 111.47 48.1885 111.505 48.8599C111.613 51.0232 112.939 89.2906 113.118 94.102C111.004 94.3631 102.581 95.3701 99.2473 96.3399C98.9964 96.3399 98.2079 96.4517 97.5627 97.1604C96.8817 97.8691 96.595 98.988 96.6667 100.443C96.6667 100.704 96.8817 100.927 97.0968 100.927C97.1685 100.927 104.767 101.86 113.943 102.121L114.444 105.44C114.48 105.702 114.695 105.888 114.946 105.888C115.197 105.888 115.412 105.702 115.448 105.44L115.95 102.121C125.125 101.86 132.724 100.927 132.796 100.927C133.047 100.89 133.226 100.704 133.226 100.443C133.297 98.988 132.975 97.8691 132.33 97.1604C131.685 96.489 130.896 96.3772 130.645 96.3399C127.312 95.3701 118.889 94.3258 116.774 94.102C116.953 89.2906 118.28 50.9859 118.387 48.8599C118.423 48.1885 118.566 47.741 118.853 47.4799C119.104 47.2561 119.391 47.2934 119.391 47.2934C119.427 47.2934 119.462 47.2934 119.498 47.2934C148.566 45.0555 216.989 39.4609 218.495 39.349H227.276L229.176 40.8782C229.319 40.9901 229.534 41.0274 229.713 40.9528C229.892 40.8782 230 40.6917 230 40.5052C230.072 38.3047 228.029 35.5819 227.957 35.47C227.921 35.3954 227.849 35.3581 227.778 35.3208C222.294 32.71 208.208 31.5165 207.563 31.4792C207.24 31.4792 175.376 30.9197 165.806 31.4046C156.918 31.8522 124.301 33.717 119.677 33.9781C119.713 30.7705 119.677 26.8543 119.57 23.0872C119.642 22.9007 119.642 22.7142 119.57 22.5277C119.427 18.1266 119.176 14.0239 118.889 11.5622C118.889 11.5249 118.925 11.4503 118.925 11.413C118.925 11.0028 118.853 10.6298 118.71 10.2941C117.491 3.13293 115.556 0.37291 115.484 0.223717C115.376 0.0745239 115.233 -6.86646e-05 115.09 -6.86646e-05C114.946 -6.86646e-05 114.767 0.0745239 114.695 0.223717C114.624 0.335609 112.688 3.09563 111.47 10.2941C111.326 10.6671 111.254 11.0401 111.254 11.4503C111.254 11.4876 111.254 11.5622 111.29 11.5995C110.968 14.0612 110.753 18.1639 110.609 22.565C110.502 22.7515 110.502 22.938 110.609 23.1245C110.502 26.8916 110.466 30.8078 110.502 34.0154C105.878 33.7543 73.2617 31.8895 64.3728 31.4419C54.8029 30.957 22.9391 31.5165 22.5807 31.5165C21.9713 31.5538 7.88531 32.7846 2.40144 35.3581C2.32976 35.3954 2.25807 35.4327 2.22224 35.5073C2.15056 35.6192 0.071701 38.342 0.17923 40.5425C1.52588e-05 40.7663 0.107529 40.9528 0.286743 41.0274ZM92.1147 44.9063C83.2617 44.1977 73.3333 43.4144 63.5842 42.6312V41.6988L92.1147 43.862V44.9063ZM62.5807 42.5566C47.7778 41.3631 33.405 40.2068 23.6918 39.4236V38.7149H24.3011L62.5807 41.6615V42.5566ZM22.6882 39.3117C19.4982 39.0506 16.8817 38.8268 14.9462 38.6776H22.6882V39.3117ZM206.559 39.3863C196.738 40.1695 182.043 41.3631 166.953 42.5939V41.6242L205.233 38.6776H206.559V39.3863ZM207.563 38.6776H215.054C213.19 38.8268 210.645 39.0506 207.599 39.2744L207.563 38.6776ZM165.914 42.6685C156.129 43.4517 146.237 44.235 137.384 44.9436V43.862L165.914 41.6988V42.6685ZM228.817 39.3117L227.778 38.4911C227.706 38.4165 227.563 38.3793 227.455 38.3793H218.996L218.925 38.0436C218.889 37.7825 218.674 37.6333 218.423 37.6333H207.563L207.599 32.5981C209.068 32.7473 222.079 33.9408 227.168 36.2906C227.491 36.6263 228.423 38.0063 228.817 39.3117ZM118.566 24.7283C118.244 24.5418 117.885 24.4299 117.455 24.2807C117.849 24.1688 118.208 24.0196 118.53 23.8705C118.566 24.1688 118.566 24.4299 118.566 24.7283ZM117.742 11.413C117.742 11.5249 117.778 11.5995 117.814 11.7114C118.1 14.1358 118.351 18.2012 118.495 22.565C117.742 23.1245 116.416 23.4975 114.982 23.4975C113.548 23.4975 112.222 23.1245 111.47 22.565C111.613 18.2012 111.828 14.1358 112.151 11.7114C112.186 11.6368 112.222 11.5249 112.222 11.413C112.222 10.1449 113.477 9.10057 114.982 9.10057C116.523 9.10057 117.742 10.1449 117.742 11.413ZM112.509 24.2807C112.115 24.3926 111.756 24.5418 111.398 24.7283C111.398 24.4299 111.398 24.1688 111.434 23.8705C111.756 24.0569 112.115 24.1688 112.509 24.2807ZM111.362 33.5679C111.326 31.2927 111.362 28.7192 111.398 26.1083C112.115 25.5116 113.513 25.1013 115.018 25.1013C116.487 25.1013 117.885 25.4743 118.638 26.1083C118.674 28.7192 118.71 31.2927 118.674 33.5679C118.602 33.6797 118.53 33.7916 118.53 33.9035C118.53 35.47 116.953 36.7755 115.018 36.7755C113.082 36.7755 111.505 35.47 111.505 33.9035C111.47 33.7543 111.434 33.6424 111.362 33.5679ZM114.982 1.56644C115.52 2.61077 116.487 4.84863 117.276 8.61569C116.631 8.16812 115.842 7.94434 114.982 7.94434C114.122 7.94434 113.333 8.20542 112.688 8.61569C113.513 4.84863 114.444 2.61077 114.982 1.56644ZM64.1577 32.4862C73.405 32.9338 108.1 34.9479 110.681 35.0971C111.254 36.7009 112.975 37.8571 115.018 37.8571C117.061 37.8571 118.746 36.7009 119.355 35.0971C121.935 34.9479 156.631 32.9711 165.878 32.4862C174.516 32.0386 201.434 32.4489 206.667 32.5608L206.631 37.6333H205.269H205.233L136.918 42.855C136.667 42.8923 136.452 43.1161 136.452 43.3771V45.0182C130.108 45.5031 124.373 45.988 119.642 46.3237C119.427 46.3237 118.889 46.2864 118.387 46.7339C117.849 47.1815 117.563 47.8902 117.527 48.8972C117.419 51.1724 115.914 94.2139 115.878 94.6615C115.878 94.9225 116.057 95.1836 116.344 95.2209C116.452 95.2209 126.953 96.4517 130.573 97.4961C130.609 97.4961 130.681 97.4961 130.717 97.5334C130.717 97.5334 131.29 97.5334 131.756 98.0182C132.151 98.4658 132.366 99.1372 132.366 100.032C130.609 100.219 123.692 101.002 115.627 101.189C115.376 101.189 115.161 101.375 115.125 101.636L115.054 102.158L114.982 101.636C114.946 101.375 114.731 101.189 114.48 101.189C106.416 100.965 99.4982 100.219 97.7419 100.032C97.7419 99.1372 97.957 98.4285 98.3513 98.0182C98.8172 97.5334 99.3548 97.5334 99.3907 97.5334C99.4265 97.5334 99.4982 97.5334 99.5341 97.4961C103.118 96.4144 113.656 95.2209 113.763 95.2209C114.014 95.1836 114.229 94.9598 114.229 94.6615C114.229 94.2139 112.724 51.1724 112.581 48.8972C112.545 47.8902 112.258 47.1815 111.72 46.7339C111.219 46.3237 110.681 46.3237 110.466 46.3237C105.627 45.9507 99.7133 45.5031 93.1541 44.9809V43.3771C93.1541 43.1161 92.9391 42.855 92.6882 42.855L24.3728 37.6333H24.3369H23.7276L23.7634 32.5608C29.8208 32.4489 55.7348 32.0759 64.1577 32.4862ZM2.75987 36.2533C8.17206 33.7543 22.3298 32.5608 22.4373 32.5608C22.4373 32.5608 22.5448 32.5608 22.724 32.5608L22.6882 37.6333H11.0753C10.8244 37.6333 10.6452 37.8198 10.5735 38.0436L10.5018 38.3793H2.50897C2.40144 38.3793 2.29393 38.4165 2.1864 38.4911L1.14697 39.3117C1.57707 38.0063 2.50897 36.6263 2.75987 36.2533Z" fill="#0079D3"/>
</svg>
