<svg xmlns="http://www.w3.org/2000/svg" viewBox="0 0 483.7 222.58"><defs><style>.cls-1{fill:#0079D3;}</style></defs><g id="Layer_2" data-name="Layer 2"><g id="Layer_1-2" data-name="Layer 1"><path class="cls-1" d="M479.75,64.58a7,7,0,0,0-5.06-1.7L252.75,59.75c4.13-42.7-8.94-58.55-9.07-58.7a2.12,2.12,0,0,0-3.66,0c-.13.15-13.2,16-9.07,58.7L9,62.88a6.94,6.94,0,0,0-5,1.7c-2.63,2.24-4,6.34-4,12.2a1.42,1.42,0,0,0,1.25,1.41c.22,0,8.89,1,23.48,2.47a1.41,1.41,0,0,0,1.19.12c21.77,2.15,56,5.23,94.87,7.63H121a1.37,1.37,0,0,0,.77.26h0a1.36,1.36,0,0,0,.63-.18c59.14,3.62,102.84,4.35,110.93,4.45l4.49,103.46-33.69,2.8a4.34,4.34,0,0,0-3.1.93,4.48,4.48,0,0,0-1.43,3.59c0,3.61.48,8.87.5,9.09a1.41,1.41,0,0,0,1.36,1.29l37.14,1.14a1.46,1.46,0,0,0,.91-.29l.94,6.41a1.41,1.41,0,0,0,2.8,0l.94-6.41a1.5,1.5,0,0,0,.91.29l37.14-1.14a1.43,1.43,0,0,0,1.37-1.29c0-.22.49-5.48.49-9.09a4.48,4.48,0,0,0-1.43-3.59,4.34,4.34,0,0,0-3.1-.93l-33.69-2.8L250.38,93c8.07-.1,51.66-.83,110.66-4.43a1.48,1.48,0,0,0,.6.16h.05a1.39,1.39,0,0,0,.75-.24l.48,0C401.63,86,435.77,83,457.55,80.8a1.25,1.25,0,0,0,.58,0,1.64,1.64,0,0,0,.49-.15c14.8-1.47,23.61-2.48,23.83-2.51a1.42,1.42,0,0,0,1.25-1.41C483.7,70.92,482.37,66.82,479.75,64.58ZM241.85,3.26c1.17,1.51,3.51,5.75,5.49,13a11.25,11.25,0,0,0-11,0C238.34,9,240.68,4.77,241.85,3.26ZM27.05,78l.14-1.15,93,7,.06,1.67C82.24,83.18,48.69,80.17,27.05,78Zm96,7.67L123,82.49a1.41,1.41,0,0,0-1.31-1.36L26.05,74a1.42,1.42,0,0,0-1.51,1.24l-.31,2.56c-11-1.09-18.52-1.92-21.37-2.24.2-5.27,1.65-7.66,2.89-8.74a4.07,4.07,0,0,1,3-1.09,1,1,0,0,0,.24,0L231.2,62.58c1.45,12.39,1.87,23.63,2,27.54C224.72,90,181.51,89.26,123.09,85.71Zm116.23,125L238,212.39l-35.17-1.08c0-.32-.05-.7-.08-1.11H240A1.4,1.4,0,0,0,239.32,210.68Zm2.54.67v0a1.41,1.41,0,0,0-1-1.15h2A1.41,1.41,0,0,0,241.86,211.35Zm39,0-35.16,1.08-1.35-1.71a1.4,1.4,0,0,0-.72-.48H281C280.94,210.61,280.91,211,280.89,211.31ZM247.6,91.5,243,197.64a1.42,1.42,0,0,0,1.29,1.48l35.19,2.93a1.71,1.71,0,0,0,.32,0,1.58,1.58,0,0,1,1,.26,2,2,0,0,1,.43,1.43c0,1.11,0,2.39-.12,3.64h-78.6c-.07-1.25-.11-2.53-.11-3.64a2,2,0,0,1,.42-1.43,1.54,1.54,0,0,1,1-.26h0a1.29,1.29,0,0,0,.34,0l35.19-2.93a1.42,1.42,0,0,0,1.29-1.48L236.1,91.49a1.42,1.42,0,0,0,0-.22c0-1.83-.33-13.24-1.74-26.47a12.61,12.61,0,0,0,15,0C247.83,79,247.61,91,247.6,91.5ZM250.07,58a1.42,1.42,0,0,0-.51,1.09c0,3-3.46,5.42-7.71,5.42s-7.7-2.43-7.7-5.42a1.43,1.43,0,0,0-.52-1.09,131.16,131.16,0,0,1,1.05-34.2,1.35,1.35,0,0,0,.28-.84c0-2.9,3.09-5.26,6.89-5.26s6.89,2.36,6.89,5.26a1.35,1.35,0,0,0,.28.84A131.16,131.16,0,0,1,250.07,58ZM363.16,85.55l.06-1.69,93-7,.15,1.18C434.66,80.2,401.13,83.2,363.16,85.55Zm96-7.76-.31-2.59A1.42,1.42,0,0,0,457.36,74l-95.61,7.17a1.42,1.42,0,0,0-1.32,1.36l-.11,3.23C301.94,89.27,258.8,90,250.47,90.12c.11-3.91.53-15.15,2-27.54l222.28,3.13a1,1,0,0,0,.24,0,4.11,4.11,0,0,1,2.93,1c1.26,1.07,2.74,3.47,2.94,8.79C478,75.84,470.35,76.68,459.19,77.79Z"/><path class="cls-1" d="M351.75,74.71h0l-31.49.44a1.42,1.42,0,0,0,0,2.83h0l31.49-.43a1.42,1.42,0,0,0,0-2.84Z"/><path class="cls-1" d="M163.17,75.15l-31.49-.44h0a1.42,1.42,0,0,0,0,2.84l31.5.43h0a1.42,1.42,0,0,0,0-2.83Z"/></g></g></svg>
