<svg xmlns="http://www.w3.org/2000/svg" viewBox="0 0 489.06 231.93"><defs><style>.cls-1{fill:#0079D3;}</style></defs><g id="Layer_2" data-name="Layer 2"><g id="Layer_1-2" data-name="Layer 1"><path class="cls-1" d="M485,71.43l-.26,0H256.53V52.5c0-37.39-9.93-51.35-10.36-51.92A1.39,1.39,0,0,0,245,0h-1a1.4,1.4,0,0,0-1.14.58c-.42.57-10.35,14.53-10.35,51.92V71.41H4.36l-.26,0c-.17,0-4.1.85-4.1,7.38V89.46a1.42,1.42,0,0,0,1.24,1.41c1,.12,95.57,12.07,104.52,13.06,8.59,1,116.32,5.59,130,6.18.46,7.26,2.7,44.82,2.74,90.35L198.9,207.2c-1.73.29-3.79,3.18-3.79,15.3a1.42,1.42,0,0,0,1.33,1.42l42.65,2.49a1.41,1.41,0,0,0,1.34-.74l1.07-2,1.59,7.16a1.41,1.41,0,0,0,1.38,1.11h.12a1.41,1.41,0,0,0,1.38-1.11l1.59-7.16,1.08,2a1.38,1.38,0,0,0,1.33.74l42.65-2.49A1.43,1.43,0,0,0,294,222.5c0-12.12-2.06-15-3.79-15.3l-39.65-6.74c0-45.53,2.28-83.09,2.74-90.35,13.73-.59,121.45-5.22,130.05-6.18,8.95-1,103.56-12.94,104.51-13.06a1.42,1.42,0,0,0,1.24-1.41V78.81C489.06,72.28,485.13,71.47,485,71.43ZM235.37,52.5a158.75,158.75,0,0,1,2.12-26.88c2-6.15,4.62-9.82,7-9.82s5.05,3.67,7,9.81a158.75,158.75,0,0,1,2.12,26.88,33.48,33.48,0,0,0-18.32.09Zm0,20.33V55.54a30.81,30.81,0,0,1,18.32-.07V72.83c0,1,0,2.14-.08,3.39-2.37,7.78-5.75,12.43-9.08,12.43s-6.71-4.65-9.08-12.44C235.4,75,235.37,73.83,235.37,72.83Zm9.16-69.6a49.45,49.45,0,0,1,4.75,12,6.07,6.07,0,0,0-9.5,0A50.29,50.29,0,0,1,244.53,3.23ZM2.83,78.81c0-3.61,1.42-4.43,1.73-4.57h228c.2,9.63,2.29,27.48,3,33-14.13-.6-113.37-4.89-128.12-6V96.81a1.42,1.42,0,0,0-1.28-1.41L7.8,85.89a1.48,1.48,0,0,0-1.09.36,1.41,1.41,0,0,0-.47,1v1.34l-3.41-.43Zm101.73,22.13C92.22,99.48,30.66,91.72,9.08,89v-.14l95.48,9.23Zm133.8,122.59L198,221.17c0-.54,0-1,0-1.54h42.47Zm6.17.71-1-4.61h2Zm6.18-.71-2.09-3.9h42.46c0,.49,0,1,0,1.54ZM289.4,210c.27.35,1.14,1.83,1.53,6.84H198.14c.39-5,1.25-6.49,1.53-6.84l40.53-6.9a1.43,1.43,0,0,0,1.18-1.4c0-51.15-2.8-92.58-2.83-93,0,0,0,0,0,0v0C238.52,108.4,237,96,236,85c2.42,4.23,5.32,6.49,8.49,6.49S250.59,89.22,253,85c-.92,11-2.47,23.4-2.49,23.58v0a0,0,0,0,1,0,0c0,.41-2.82,41.84-2.82,93a1.42,1.42,0,0,0,1.17,1.4ZM480.05,89c-21.48,2.71-83,10.46-95.48,11.94V98.09l95.48-9.23Zm6.18-.78-3.34.42V87.3a1.41,1.41,0,0,0-.47-1,1.46,1.46,0,0,0-1.09-.36L383,95.4a1.42,1.42,0,0,0-1.28,1.41v4.42c-14.52,1.13-114,5.43-128.19,6,.67-5.56,2.76-23.51,3-33h228c.38.17,1.75,1,1.75,4.57Z"/><path class="cls-1" d="M139.05,86.32l38.55,2.05h.07a1.42,1.42,0,0,0,.08-2.83l-38.54-2.05a1.41,1.41,0,0,0-1.5,1.34A1.43,1.43,0,0,0,139.05,86.32Z"/><path class="cls-1" d="M349.6,83.49l-38.55,2.05a1.42,1.42,0,0,0,.08,2.83h.08l38.54-2.05a1.43,1.43,0,0,0,1.34-1.49A1.4,1.4,0,0,0,349.6,83.49Z"/></g></g></svg>
